<?xml version="1.0"?>
<svg xmlns="http://www.w3.org/2000/svg" xmlns:xlink="http://www.w3.org/1999/xlink" xmlns:svgjs="http://svgjs.com/svgjs" version="1.1" width="512" height="512" x="0" y="0" viewBox="0 0 511.986 511.986" style="enable-background:new 0 0 512 512" xml:space="preserve"><g><g xmlns="http://www.w3.org/2000/svg"><path d="m442.948 176.234c-10.802-11.838-21.912-22.639-33.269-32.362l26.626-26.626-21.213-21.213-29.272 29.273c-19.968-14.04-41.456-25.525-64.901-33.309l11.68-43.592-28.979-7.764-11.771 43.931c-11.877-2.143-23.841-3.226-35.856-3.226s-23.979 1.084-35.857 3.226l-11.771-43.931-28.978 7.765 11.68 43.591c-23.447 7.784-44.935 19.269-64.902 33.309l-29.271-29.273-21.213 21.213 26.626 26.626c-11.356 9.723-22.467 20.525-33.269 32.363-25.551 28-50.264 62.556-69.038 100.11 18.715 37.436 43.39 72.004 69.038 100.111 49.907 54.692 113.241 94.889 186.955 94.889 73.733 0 137.068-40.218 186.955-94.889 25.549-27.999 50.263-62.556 69.038-100.111-18.703-37.411-43.373-71.984-69.038-100.111zm-22.66 180.547c-51.4 56.113-106.677 84.564-164.295 84.564s-112.895-28.451-164.295-84.564c-30.266-33.041-50.249-66.545-57.952-80.436 7.708-13.898 27.691-47.401 57.952-80.436 51.4-56.113 106.677-84.564 164.295-84.564s112.895 28.452 164.295 84.564c30.266 33.041 50.249 66.545 57.952 80.436-7.708 13.898-27.692 47.401-57.952 80.436z" fill="#fbd922" data-original="#000000" style=""/><path d="m255.993 141.345c-74.439 0-135 60.561-135 135s60.561 135 135 135 135-60.561 135-135-60.561-135-135-135zm0 240c-57.897 0-105-47.103-105-105s47.103-105 105-105 105 47.103 105 105-47.103 105-105 105z" fill="#fbd922" data-original="#000000" style=""/><path d="m195.993 345.616 138.541-69.271-138.541-69.271zm30-90 41.459 20.729-41.459 20.729z" fill="#fbd922" data-original="#000000" style=""/></g></g></svg>
